<svg xmlns="http://www.w3.org/2000/svg" width="1em" height="1em" viewBox="0 0 24 24"><path fill="currentColor" d="m12 11.325l2.375 2.375q.275.275.688.275t.712-.275q.3-.3.3-.712t-.3-.713L12.7 9.2q-.3-.3-.7-.3t-.7.3l-3.1 3.1q-.3.3-.287.7t.312.7q.3.275.7.288t.7-.288L12 11.325ZM12 22q-2.075 0-3.9-.788t-3.175-2.137q-1.35-1.35-2.137-3.175T2 12q0-2.075.788-3.9t2.137-3.175q1.35-1.35 3.175-2.137T12 2q2.075 0 3.9.788t3.175 2.137q1.35 1.35 2.138 3.175T22 12q0 2.075-.788 3.9t-2.137 3.175q-1.35 1.35-3.175 2.138T12 22Z"/></svg>