<svg xmlns="http://www.w3.org/2000/svg" width="1em" height="1em" viewBox="0 0 24 24"><path fill="currentColor" d="m12 13.9l1.9 1.9q.3.275.713.275t.687-.275q.3-.3.3-.713t-.3-.687l-1.9-1.9l1.9-1.9q.3-.3.3-.713t-.3-.687q-.275-.3-.688-.3t-.712.3L12 11.1l-1.9-1.9q-.275-.3-.688-.3t-.712.3q-.275.275-.275.688t.275.712l1.9 1.9l-1.9 1.9q-.275.275-.275.688t.275.712q.3.275.713.275t.687-.275l1.9-1.9ZM7 21q-.825 0-1.413-.588T5 19V6q-.425 0-.713-.288T4 5q0-.425.288-.713T5 4h4q0-.425.288-.713T10 3h4q.425 0 .713.288T15 4h4q.425 0 .713.288T20 5q0 .425-.288.713T19 6v13q0 .825-.588 1.413T17 21H7Z"/></svg>