<svg xmlns="http://www.w3.org/2000/svg" width="1em" height="1em" viewBox="0 0 24 24"><path fill="currentColor" d="M12 22q-2.075 0-3.9-.788t-3.175-2.137q-1.35-1.35-2.137-3.175T2 12q0-2.075.788-3.9t2.137-3.175q1.35-1.35 3.175-2.137T12 2q2.075 0 3.9.788t3.175 2.137q1.35 1.35 2.138 3.175T22 12q0 2.075-.788 3.9t-2.137 3.175q-1.35 1.35-3.175 2.138T12 22Zm0-2q3.35 0 5.675-2.325T20 12q0-.175-.013-.363t-.012-.312q-.125.725-.675 1.2T18 13h-2q-.825 0-1.413-.587T14 11v-1h-4V8q0-.825.588-1.413T12 6h1q0-.575.313-1.012t.762-.713q-.5-.125-1.012-.2T12 4Q8.65 4 6.325 6.325T4 12h5q1.65 0 2.825 1.175T13 16v1h-3v2.75q.5.125.988.188T12 20Z"/></svg>