<svg xmlns="http://www.w3.org/2000/svg" width="1em" height="1em" viewBox="0 0 24 24"><path fill="currentColor" d="M22.11 21.46L2.39 1.73L1.11 3l5.2 5.2L6 9h1.11l1.5 1.5H2V12h8.11l3.39 3.37c-.12.24-.2.48-.26.73c-.95-.41-1.83-.3-2.48-.01C10.35 14.31 8.79 13 6.94 13C4.77 13 3 14.79 3 17s1.77 4 3.94 4c2.06 0 3.74-1.62 3.9-3.68c.34-.24 1.23-.69 2.32.02c.18 2.05 1.84 3.66 3.9 3.66c.6 0 1.16-.14 1.66-.39l2.12 2.12l1.27-1.27m-15.17-1.6c-1.56 0-2.81-1.28-2.81-2.86c0-1.58 1.26-2.86 2.81-2.86c1.56 0 2.81 1.28 2.81 2.86c0 1.58-1.25 2.86-2.81 2.86m10.12 0c-1.56 0-2.81-1.28-2.81-2.86c0-.26.04-.5.11-.75l3.48 3.48c-.25.08-.5.13-.78.13M22 12h-6.8l-1.5-1.5H22V12m-4.94 1c2.17 0 3.94 1.79 3.94 4c0 .25-.03.5-.07.73l-1.09-1.09a2.825 2.825 0 0 0-2.46-2.47l-1.09-1.08c.25-.06.51-.09.77-.09M12.2 9L7.72 4.5l.71-1.82c.2-.51.76-.79 1.29-.64l.05.01l2.23.74l2.22-.74c.53-.17 1.1.09 1.32.58l.02.05L18 9h-5.8Z"/></svg>