<svg xmlns="http://www.w3.org/2000/svg" width="32" height="32" viewBox="0 0 32 32"><g fill="none"><g filter="url(#f153idd)"><rect width="20.305" height="25.789" x="7.225" y="4.109" fill="url(#f153id0)" rx="1.4"/><rect width="20.305" height="25.789" x="7.225" y="4.109" fill="url(#f153id1)" rx="1.4"/></g><g filter="url(#f153ide)"><path fill="#91879F" d="M18.993 4.11H8.89c-.714 0-1.293.626-1.293 1.4v22.988c0 .051.003.101.007.15h14.855c.66 0 1.196-.58 1.196-1.294V9.538a.964.964 0 0 0-.25-.654l-4.41-4.775Z"/></g><g filter="url(#f153idf)"><path fill="url(#f153id2)" d="M17.865 2.388a.925.925 0 0 0-.654-.27H4.938c-.715 0-1.295.58-1.295 1.294v23.23c0 .716.58 1.296 1.295 1.296h17.687c.716 0 1.295-.58 1.295-1.296V8.827a.925.925 0 0 0-.27-.654l-5.785-5.785Z"/></g><g filter="url(#f153idg)"><path fill="#D2C5DF" d="M17.251 2.5c0-.186.054-.305-.048-.325c.097.006.237.041.326.076c.113.045-.027.144.062.23l.008.009l5.784 5.784a.929.929 0 0 1 .27.654v.058c0-.215-.154-.343-.27-.343H18.36a1.11 1.11 0 0 1-1.11-1.11V2.5Z"/></g><g filter="url(#f153idh)"><path fill="url(#f153id3)" d="M17.518 2.4c0-.187-.146-.26-.248-.28a.925.925 0 0 1 .595.268l5.784 5.785a.92.92 0 0 1 .271.654v.058c0-.215-.155-.343-.27-.343h-5.022a1.11 1.11 0 0 1-1.11-1.11V2.399Z"/></g><path fill="url(#f153id4)" d="M17.518 2.4c0-.187-.146-.26-.248-.28a.925.925 0 0 1 .595.268l5.784 5.785a.92.92 0 0 1 .271.654v.058c0-.215-.155-.343-.27-.343h-5.022a1.11 1.11 0 0 1-1.11-1.11V2.399Z"/><rect width="12.87" height=".918" x="7.343" y="11.324" fill="url(#f153id5)" rx=".459"/><rect width="12.87" height=".918" x="7.343" y="14.099" fill="url(#f153id6)" rx=".459"/><rect width="12.87" height=".918" x="7.343" y="16.874" fill="url(#f153id7)" rx=".459"/><rect width="8.31" height=".918" x="7.343" y="19.649" fill="url(#f153id8)" rx=".459"/><g filter="url(#f153idi)"><path fill="#BAA8C1" d="M23.795 13.484h-1.382a.469.469 0 0 0-.355.166l-.901 1.05a.259.259 0 0 0 0 .334l.9 1.05c.091.106.22.166.356.166h1.382v-2.766Z"/></g><g filter="url(#f153idj)"><path fill="url(#f153id9)" d="M22.63 13.322a.5.5 0 0 1 .373-.166h3.3a.25.25 0 0 1 .25.25v2.266a.25.25 0 0 1-.25.25h-3.3a.5.5 0 0 1-.372-.166l-.943-1.05a.25.25 0 0 1 0-.334l.943-1.05Z"/><path fill="url(#f153ida)" d="M22.63 13.322a.5.5 0 0 1 .373-.166h3.3a.25.25 0 0 1 .25.25v2.266a.25.25 0 0 1-.25.25h-3.3a.5.5 0 0 1-.372-.166l-.943-1.05a.25.25 0 0 1 0-.334l.943-1.05Z"/></g><g filter="url(#f153idk)"><path fill="#91879F" d="M27.436 20.488v2.766H25.43a.48.48 0 0 1-.362-.166l-.917-1.05a.255.255 0 0 1 0-.334l.917-1.05a.48.48 0 0 1 .362-.166h2.006Z"/></g><g filter="url(#f153idl)"><path fill="url(#f153idb)" d="M25.615 20.275a.5.5 0 0 1 .372-.166h3.3a.25.25 0 0 1 .25.25v2.266a.25.25 0 0 1-.25.25h-3.3a.5.5 0 0 1-.372-.166l-.943-1.05a.25.25 0 0 1 0-.334l.943-1.05Z"/><path fill="url(#f153idc)" d="M25.615 20.275a.5.5 0 0 1 .372-.166h3.3a.25.25 0 0 1 .25.25v2.266a.25.25 0 0 1-.25.25h-3.3a.5.5 0 0 1-.372-.166l-.943-1.05a.25.25 0 0 1 0-.334l.943-1.05Z"/></g><defs><linearGradient id="f153id0" x1="20.827" x2="28.327" y1="24.25" y2="27.813" gradientUnits="userSpaceOnUse"><stop stop-color="#AFAAB6"/><stop offset="1" stop-color="#B7B0C0"/></linearGradient><linearGradient id="f153id1" x1="8.764" x2="21.264" y1="30.313" y2="22.375" gradientUnits="userSpaceOnUse"><stop stop-color="#A79FB2"/><stop offset="1" stop-color="#A79FB2" stop-opacity="0"/></linearGradient><linearGradient id="f153id2" x1="13.782" x2="13.782" y1="2.117" y2="27.938" gradientUnits="userSpaceOnUse"><stop stop-color="#EBE4F3"/><stop offset="1" stop-color="#E4DAF0"/></linearGradient><linearGradient id="f153id3" x1="17.98" x2="20.423" y1="8.282" y2="5.839" gradientUnits="userSpaceOnUse"><stop stop-color="#D9D3E1"/><stop offset="1" stop-color="#CCC7D1"/></linearGradient><linearGradient id="f153id4" x1="20.972" x2="20.379" y1="5.362" y2="5.94" gradientUnits="userSpaceOnUse"><stop offset=".119" stop-color="#DBDADC"/><stop offset=".577" stop-color="#CBC7D0" stop-opacity="0"/></linearGradient><linearGradient id="f153id5" x1="7.343" x2="20.213" y1="11.783" y2="11.783" gradientUnits="userSpaceOnUse"><stop stop-color="#9C96A2"/><stop offset="1" stop-color="#9A95A1"/></linearGradient><linearGradient id="f153id6" x1="7.343" x2="20.213" y1="14.558" y2="14.558" gradientUnits="userSpaceOnUse"><stop stop-color="#9C96A2"/><stop offset="1" stop-color="#9A95A1"/></linearGradient><linearGradient id="f153id7" x1="7.343" x2="20.213" y1="17.333" y2="17.333" gradientUnits="userSpaceOnUse"><stop stop-color="#9C96A2"/><stop offset="1" stop-color="#9A95A1"/></linearGradient><linearGradient id="f153id8" x1="7.343" x2="15.653" y1="20.108" y2="20.108" gradientUnits="userSpaceOnUse"><stop stop-color="#9C96A2"/><stop offset="1" stop-color="#9A95A1"/></linearGradient><linearGradient id="f153id9" x1="24.088" x2="24.088" y1="13.156" y2="15.922" gradientUnits="userSpaceOnUse"><stop stop-color="#E0437B"/><stop offset="1" stop-color="#DC4369"/></linearGradient><linearGradient id="f153ida" x1="22.03" x2="22.42" y1="13.906" y2="14.219" gradientUnits="userSpaceOnUse"><stop offset=".263" stop-color="#CA4A72"/><stop offset="1" stop-color="#CA4A72" stop-opacity="0"/></linearGradient><linearGradient id="f153idb" x1="27.073" x2="27.073" y1="20.109" y2="22.875" gradientUnits="userSpaceOnUse"><stop stop-color="#E4BD58"/><stop offset="1" stop-color="#D89D52"/></linearGradient><linearGradient id="f153idc" x1="25.014" x2="25.498" y1="20.859" y2="21.219" gradientUnits="userSpaceOnUse"><stop offset=".263" stop-color="#AB9365"/><stop offset="1" stop-color="#E3B758" stop-opacity="0"/></linearGradient><filter id="f153idd" width="20.505" height="25.989" x="7.125" y="4.009" color-interpolation-filters="sRGB" filterUnits="userSpaceOnUse"><feFlood flood-opacity="0" result="BackgroundImageFix"/><feBlend in="SourceGraphic" in2="BackgroundImageFix" result="shape"/><feColorMatrix in="SourceAlpha" result="hardAlpha" values="0 0 0 0 0 0 0 0 0 0 0 0 0 0 0 0 0 0 127 0"/><feOffset dx=".1" dy="-.1"/><feGaussianBlur stdDeviation=".05"/><feComposite in2="hardAlpha" k2="-1" k3="1" operator="arithmetic"/><feColorMatrix values="0 0 0 0 0.596078 0 0 0 0 0.529412 0 0 0 0 0.67451 0 0 0 1 0"/><feBlend in2="shape" result="effect1_innerShadow_18_21217"/><feColorMatrix in="SourceAlpha" result="hardAlpha" values="0 0 0 0 0 0 0 0 0 0 0 0 0 0 0 0 0 0 127 0"/><feOffset dx="-.1" dy=".1"/><feGaussianBlur stdDeviation=".1"/><feComposite in2="hardAlpha" k2="-1" k3="1" operator="arithmetic"/><feColorMatrix values="0 0 0 0 0.811765 0 0 0 0 0.8 0 0 0 0 0.827451 0 0 0 1 0"/><feBlend in2="effect1_innerShadow_18_21217" result="effect2_innerShadow_18_21217"/></filter><filter id="f153ide" width="18.058" height="26.539" x="6.596" y="3.109" color-interpolation-filters="sRGB" filterUnits="userSpaceOnUse"><feFlood flood-opacity="0" result="BackgroundImageFix"/><feBlend in="SourceGraphic" in2="BackgroundImageFix" result="shape"/><feGaussianBlur result="effect1_foregroundBlur_18_21217" stdDeviation=".5"/></filter><filter id="f153idf" width="20.677" height="26.22" x="3.543" y="1.817" color-interpolation-filters="sRGB" filterUnits="userSpaceOnUse"><feFlood flood-opacity="0" result="BackgroundImageFix"/><feBlend in="SourceGraphic" in2="BackgroundImageFix" result="shape"/><feColorMatrix in="SourceAlpha" result="hardAlpha" values="0 0 0 0 0 0 0 0 0 0 0 0 0 0 0 0 0 0 127 0"/><feOffset dx=".3" dy="-.3"/><feGaussianBlur stdDeviation=".3"/><feComposite in2="hardAlpha" k2="-1" k3="1" operator="arithmetic"/><feColorMatrix values="0 0 0 0 0.807843 0 0 0 0 0.768627 0 0 0 0 0.85098 0 0 0 1 0"/><feBlend in2="shape" result="effect1_innerShadow_18_21217"/><feColorMatrix in="SourceAlpha" result="hardAlpha" values="0 0 0 0 0 0 0 0 0 0 0 0 0 0 0 0 0 0 127 0"/><feOffset dx=".1" dy="-.1"/><feGaussianBlur stdDeviation=".1"/><feComposite in2="hardAlpha" k2="-1" k3="1" operator="arithmetic"/><feColorMatrix values="0 0 0 0 0.709804 0 0 0 0 0.690196 0 0 0 0 0.733333 0 0 0 1 0"/><feBlend in2="effect1_innerShadow_18_21217" result="effect2_innerShadow_18_21217"/><feColorMatrix in="SourceAlpha" result="hardAlpha" values="0 0 0 0 0 0 0 0 0 0 0 0 0 0 0 0 0 0 127 0"/><feOffset dy="-.1"/><feGaussianBlur stdDeviation=".1"/><feComposite in2="hardAlpha" k2="-1" k3="1" operator="arithmetic"/><feColorMatrix values="0 0 0 0 0.72549 0 0 0 0 0.65098 0 0 0 0 0.8 0 0 0 1 0"/><feBlend in2="effect2_innerShadow_18_21217" result="effect3_innerShadow_18_21217"/><feColorMatrix in="SourceAlpha" result="hardAlpha" values="0 0 0 0 0 0 0 0 0 0 0 0 0 0 0 0 0 0 127 0"/><feOffset dx="-.15" dy=".15"/><feGaussianBlur stdDeviation=".05"/><feComposite in2="hardAlpha" k2="-1" k3="1" operator="arithmetic"/><feColorMatrix values="0 0 0 0 0.952941 0 0 0 0 0.941176 0 0 0 0 0.964706 0 0 0 1 0"/><feBlend in2="effect3_innerShadow_18_21217" result="effect4_innerShadow_18_21217"/></filter><filter id="f153idg" width="7.45" height="7.811" x="16.703" y="1.675" color-interpolation-filters="sRGB" filterUnits="userSpaceOnUse"><feFlood flood-opacity="0" result="BackgroundImageFix"/><feBlend in="SourceGraphic" in2="BackgroundImageFix" result="shape"/><feGaussianBlur result="effect1_foregroundBlur_18_21217" stdDeviation=".25"/></filter><filter id="f153idh" width="6.75" height="6.866" x="17.27" y="2.019" color-interpolation-filters="sRGB" filterUnits="userSpaceOnUse"><feFlood flood-opacity="0" result="BackgroundImageFix"/><feBlend in="SourceGraphic" in2="BackgroundImageFix" result="shape"/><feColorMatrix in="SourceAlpha" result="hardAlpha" values="0 0 0 0 0 0 0 0 0 0 0 0 0 0 0 0 0 0 127 0"/><feOffset dx=".1"/><feGaussianBlur stdDeviation=".075"/><feComposite in2="hardAlpha" k2="-1" k3="1" operator="arithmetic"/><feColorMatrix values="0 0 0 0 0.631373 0 0 0 0 0.611765 0 0 0 0 0.654902 0 0 0 1 0"/><feBlend in2="shape" result="effect1_innerShadow_18_21217"/><feColorMatrix in="SourceAlpha" result="hardAlpha" values="0 0 0 0 0 0 0 0 0 0 0 0 0 0 0 0 0 0 127 0"/><feOffset dy="-.1"/><feGaussianBlur stdDeviation=".075"/><feComposite in2="hardAlpha" k2="-1" k3="1" operator="arithmetic"/><feColorMatrix values="0 0 0 0 0.752941 0 0 0 0 0.67451 0 0 0 0 0.835294 0 0 0 1 0"/><feBlend in2="effect1_innerShadow_18_21217" result="effect2_innerShadow_18_21217"/></filter><filter id="f153idi" width="3.9" height="3.966" x="20.495" y="12.884" color-interpolation-filters="sRGB" filterUnits="userSpaceOnUse"><feFlood flood-opacity="0" result="BackgroundImageFix"/><feBlend in="SourceGraphic" in2="BackgroundImageFix" result="shape"/><feGaussianBlur result="effect1_foregroundBlur_18_21217" stdDeviation=".3"/></filter><filter id="f153idj" width="5.33" height="3.166" x="21.424" y="12.956" color-interpolation-filters="sRGB" filterUnits="userSpaceOnUse"><feFlood flood-opacity="0" result="BackgroundImageFix"/><feBlend in="SourceGraphic" in2="BackgroundImageFix" result="shape"/><feColorMatrix in="SourceAlpha" result="hardAlpha" values="0 0 0 0 0 0 0 0 0 0 0 0 0 0 0 0 0 0 127 0"/><feOffset dx="-.2" dy=".2"/><feGaussianBlur stdDeviation=".15"/><feComposite in2="hardAlpha" k2="-1" k3="1" operator="arithmetic"/><feColorMatrix values="0 0 0 0 0.92549 0 0 0 0 0.4 0 0 0 0 0.576471 0 0 0 1 0"/><feBlend in2="shape" result="effect1_innerShadow_18_21217"/><feColorMatrix in="SourceAlpha" result="hardAlpha" values="0 0 0 0 0 0 0 0 0 0 0 0 0 0 0 0 0 0 127 0"/><feOffset dx=".2" dy="-.2"/><feGaussianBlur stdDeviation=".15"/><feComposite in2="hardAlpha" k2="-1" k3="1" operator="arithmetic"/><feColorMatrix values="0 0 0 0 0.721569 0 0 0 0 0.223529 0 0 0 0 0.376471 0 0 0 1 0"/><feBlend in2="effect1_innerShadow_18_21217" result="effect2_innerShadow_18_21217"/></filter><filter id="f153idk" width="4.148" height="3.566" x="23.688" y="20.088" color-interpolation-filters="sRGB" filterUnits="userSpaceOnUse"><feFlood flood-opacity="0" result="BackgroundImageFix"/><feBlend in="SourceGraphic" in2="BackgroundImageFix" result="shape"/><feGaussianBlur result="effect1_foregroundBlur_18_21217" stdDeviation=".2"/></filter><filter id="f153idl" width="5.33" height="3.166" x="24.408" y="19.909" color-interpolation-filters="sRGB" filterUnits="userSpaceOnUse"><feFlood flood-opacity="0" result="BackgroundImageFix"/><feBlend in="SourceGraphic" in2="BackgroundImageFix" result="shape"/><feColorMatrix in="SourceAlpha" result="hardAlpha" values="0 0 0 0 0 0 0 0 0 0 0 0 0 0 0 0 0 0 127 0"/><feOffset dx="-.2" dy=".2"/><feGaussianBlur stdDeviation=".15"/><feComposite in2="hardAlpha" k2="-1" k3="1" operator="arithmetic"/><feColorMatrix values="0 0 0 0 0.988235 0 0 0 0 0.929412 0 0 0 0 0.439216 0 0 0 1 0"/><feBlend in2="shape" result="effect1_innerShadow_18_21217"/><feColorMatrix in="SourceAlpha" result="hardAlpha" values="0 0 0 0 0 0 0 0 0 0 0 0 0 0 0 0 0 0 127 0"/><feOffset dx=".2" dy="-.2"/><feGaussianBlur stdDeviation=".15"/><feComposite in2="hardAlpha" k2="-1" k3="1" operator="arithmetic"/><feColorMatrix values="0 0 0 0 0.647059 0 0 0 0 0.411765 0 0 0 0 0.278431 0 0 0 1 0"/><feBlend in2="effect1_innerShadow_18_21217" result="effect2_innerShadow_18_21217"/></filter></defs></g></svg>